# xmcd
#
# Track frame offsets:
#	150
#	15235
#	28098
#	41175
#	55723
#	69175
#	82963
#	95040
#	109083
#	121675
#	134093
#	147473
#	158903
#	171788
# Disc length: 2475 seconds
# Revision: 5
# Processed by: cddbd v1.5.1PL2 Copyright (c) Steve Scherf et al.
#
# Submitted via: libkcddb 0.31
#
DISCID=b809a90e
DTITLE=Bo Carter - Twist It Babe (1931-1940)
DYEAR=1900
DGENRE=Unknown
TTITLE0=Twist It, Baby
TTITLE1=Some Day
TTITLE2=Doubled Up In A Knot
TTITLE3=Shake 'Em On Down
TTITLE4=Let Me Roll Your Lemon
TTITLE5=My Baby
TTITLE6=Rolling Blues
TTITLE7=Policy Blues
TTITLE8=Honey
TTITLE9=The Law Gonna Step On You
TTITLE10=I Get The Blues
TTITLE11=Howling Tom Cat Blues
TTITLE12=Pussy Cat Blues
TTITLE13=Bo Carter Special
EXTD=
EXTT0=
EXTT1=
EXTT2=
EXTT3=
EXTT4=
EXTT5=
EXTT6=
EXTT7=
EXTT8=
EXTT9=
EXTT10=
EXTT11=
EXTT12=
EXTT13=
PLAYORDER=
